<svg width="95" height="34" viewBox="0 0 95 34" fill="none" xmlns="http://www.w3.org/2000/svg">
<g clip-path="url(#clip0_22_560)">
<rect x="-0.00341797" y="0.5" width="95" height="33" rx="16.5" fill="#112220"/>
<g clip-path="url(#clip1_22_560)">
<path d="M26.4253 15.7549L22.5703 14.2654L21.1684 10.1694C21.081 9.91383 20.9216 9.693 20.7119 9.53694C20.5023 9.38089 20.2525 9.29718 19.9965 9.29718C19.7406 9.29718 19.4908 9.38089 19.2811 9.53694C19.0715 9.693 18.9121 9.91383 18.8247 10.1694L17.4228 14.2654L13.5678 15.7549C13.3272 15.8478 13.1194 16.0171 12.9725 16.2399C12.8256 16.4626 12.7468 16.728 12.7468 17C12.7468 17.272 12.8256 17.5374 12.9725 17.7601C13.1194 17.9829 13.3272 18.1522 13.5678 18.2451L17.4228 19.7346L18.8247 23.8305C18.9121 24.0862 19.0715 24.307 19.2811 24.463C19.4908 24.6191 19.7406 24.7028 19.9965 24.7028C20.2525 24.7028 20.5023 24.6191 20.7119 24.463C20.9216 24.307 21.081 24.0862 21.1684 23.8305L22.5703 19.7346L26.4253 18.2451C26.6659 18.1522 26.8737 17.9829 27.0206 17.7601C27.1675 17.5374 27.2462 17.272 27.2462 17C27.2462 16.728 27.1675 16.4626 27.0206 16.2399C26.8737 16.0171 26.6659 15.8478 26.4253 15.7549ZM21.9472 18.2783C21.7757 18.3443 21.62 18.4496 21.491 18.5866C21.3621 18.7236 21.2631 18.889 21.2009 19.0712L19.9965 22.5907L18.7922 19.0712C18.73 18.889 18.631 18.7236 18.502 18.5866C18.3731 18.4496 18.2174 18.3443 18.0459 18.2783L14.7334 17L18.0459 15.7203C18.2174 15.6543 18.3731 15.5491 18.502 15.4121C18.631 15.2751 18.73 15.1096 18.7922 14.9275L19.9965 11.4079L21.2009 14.9275C21.2631 15.1096 21.3621 15.2751 21.491 15.4121C21.62 15.5491 21.7757 15.6543 21.9472 15.7203L25.2597 17L21.9472 18.2783Z" fill="#33C6AB"/>
</g>
<path d="M32.9906 21.5V11.7H36.4206C37.1859 11.7 37.8206 11.8307 38.3246 12.092C38.8286 12.344 39.2019 12.694 39.4446 13.142C39.6966 13.5807 39.8226 14.08 39.8226 14.64C39.8226 15.172 39.7012 15.662 39.4586 16.11C39.2252 16.5487 38.8566 16.8987 38.3526 17.16C37.8486 17.4213 37.2046 17.552 36.4206 17.552H34.4746V21.5H32.9906ZM34.4746 16.334H36.3506C37.0506 16.334 37.5499 16.1847 37.8486 15.886C38.1566 15.578 38.3106 15.1627 38.3106 14.64C38.3106 14.0987 38.1566 13.6787 37.8486 13.38C37.5499 13.072 37.0506 12.918 36.3506 12.918H34.4746V16.334ZM44.0986 21.668C43.4359 21.668 42.8386 21.5187 42.3066 21.22C41.7839 20.912 41.3686 20.4873 41.0606 19.946C40.7526 19.3953 40.5986 18.756 40.5986 18.028C40.5986 17.3 40.7526 16.6653 41.0606 16.124C41.3779 15.5733 41.8026 15.1487 42.3346 14.85C42.8666 14.542 43.4593 14.388 44.1126 14.388C44.7753 14.388 45.3679 14.542 45.8906 14.85C46.4226 15.1487 46.8426 15.5733 47.1506 16.124C47.4679 16.6653 47.6266 17.3 47.6266 18.028C47.6266 18.756 47.4679 19.3953 47.1506 19.946C46.8426 20.4873 46.4226 20.912 45.8906 21.22C45.3586 21.5187 44.7613 21.668 44.0986 21.668ZM44.0986 20.394C44.4533 20.394 44.7799 20.3053 45.0786 20.128C45.3866 19.9507 45.6339 19.6893 45.8206 19.344C46.0073 18.9893 46.1006 18.5507 46.1006 18.028C46.1006 17.5053 46.0073 17.0713 45.8206 16.726C45.6433 16.3713 45.4006 16.1053 45.0926 15.928C44.7939 15.7507 44.4673 15.662 44.1126 15.662C43.7579 15.662 43.4266 15.7507 43.1186 15.928C42.8199 16.1053 42.5773 16.3713 42.3906 16.726C42.2039 17.0713 42.1106 17.5053 42.1106 18.028C42.1106 18.5507 42.2039 18.9893 42.3906 19.344C42.5773 19.6893 42.8199 19.9507 43.1186 20.128C43.4173 20.3053 43.7439 20.394 44.0986 20.394ZM49.2315 24.58V14.556H50.5615L50.7155 15.634C50.9395 15.3073 51.2475 15.018 51.6395 14.766C52.0315 14.514 52.5355 14.388 53.1515 14.388C53.8235 14.388 54.4161 14.5467 54.9295 14.864C55.4428 15.1813 55.8441 15.6153 56.1335 16.166C56.4321 16.7167 56.5815 17.342 56.5815 18.042C56.5815 18.742 56.4321 19.3673 56.1335 19.918C55.8441 20.4593 55.4428 20.8887 54.9295 21.206C54.4161 21.514 53.8188 21.668 53.1375 21.668C52.5961 21.668 52.1155 21.5607 51.6955 21.346C51.2848 21.1313 50.9581 20.828 50.7155 20.436V24.58H49.2315ZM52.8855 20.38C53.5201 20.38 54.0428 20.1653 54.4535 19.736C54.8641 19.2973 55.0695 18.728 55.0695 18.028C55.0695 17.5707 54.9761 17.1647 54.7895 16.81C54.6028 16.4553 54.3461 16.18 54.0195 15.984C53.6928 15.7787 53.3148 15.676 52.8855 15.676C52.2508 15.676 51.7281 15.8953 51.3175 16.334C50.9161 16.7727 50.7155 17.3373 50.7155 18.028C50.7155 18.728 50.9161 19.2973 51.3175 19.736C51.7281 20.1653 52.2508 20.38 52.8855 20.38ZM60.7485 21.668C59.9085 21.668 59.2459 21.4067 58.7605 20.884C58.2845 20.3613 58.0465 19.582 58.0465 18.546V14.556H59.5305V18.392C59.5305 19.736 60.0812 20.408 61.1825 20.408C61.7332 20.408 62.1859 20.212 62.5405 19.82C62.8952 19.428 63.0725 18.868 63.0725 18.14V14.556H64.5565V21.5H63.2405L63.1285 20.282C62.9139 20.7113 62.5965 21.052 62.1765 21.304C61.7659 21.5467 61.2899 21.668 60.7485 21.668ZM66.4443 21.5V11.42H67.9283V21.5H66.4443ZM72.1596 21.668C71.5716 21.668 71.0863 21.57 70.7036 21.374C70.321 21.178 70.0363 20.9213 69.8496 20.604C69.663 20.2773 69.5696 19.9227 69.5696 19.54C69.5696 18.868 69.831 18.336 70.3536 17.944C70.8763 17.552 71.623 17.356 72.5936 17.356H74.4136V17.23C74.4136 16.6887 74.2643 16.2827 73.9656 16.012C73.6763 15.7413 73.2983 15.606 72.8316 15.606C72.421 15.606 72.0616 15.7087 71.7536 15.914C71.455 16.11 71.273 16.404 71.2076 16.796H69.7236C69.7703 16.292 69.9383 15.8627 70.2276 15.508C70.5263 15.144 70.8996 14.8687 71.3476 14.682C71.805 14.486 72.3043 14.388 72.8456 14.388C73.8163 14.388 74.5676 14.6447 75.0996 15.158C75.6316 15.662 75.8976 16.3527 75.8976 17.23V21.5H74.6096L74.4836 20.31C74.2876 20.6927 74.003 21.0147 73.6296 21.276C73.2563 21.5373 72.7663 21.668 72.1596 21.668ZM72.4536 20.464C72.855 20.464 73.191 20.3707 73.4616 20.184C73.7416 19.988 73.9563 19.7313 74.1056 19.414C74.2643 19.0967 74.3623 18.7467 74.3996 18.364H72.7476C72.1596 18.364 71.7396 18.4667 71.4876 18.672C71.245 18.8773 71.1236 19.134 71.1236 19.442C71.1236 19.7593 71.2403 20.0113 71.4736 20.198C71.7163 20.3753 72.043 20.464 72.4536 20.464ZM77.6279 21.5V14.556H78.9579L79.0839 15.872C79.3266 15.4147 79.6626 15.0553 80.0919 14.794C80.5306 14.5233 81.0579 14.388 81.6739 14.388V15.942H81.2679C80.8573 15.942 80.4886 16.012 80.1619 16.152C79.8446 16.2827 79.5879 16.5113 79.3919 16.838C79.2053 17.1553 79.1119 17.5987 79.1119 18.168V21.5H77.6279Z" fill="#33C6AB"/>
<rect x="0.496582" y="1" width="92.84" height="31.8" rx="15.9" stroke="#236456"/>
</g>
<defs>
<clipPath id="clip0_22_560">
<rect x="-0.00341797" y="0.5" width="95" height="33" rx="16.5" fill="white"/>
</clipPath>
<clipPath id="clip1_22_560">
<rect width="16" height="17" fill="white" transform="translate(11.9966 8.5)"/>
</clipPath>
</defs>
</svg>
