<svg width="25" height="24" viewBox="0 0 25 24" fill="none" xmlns="http://www.w3.org/2000/svg">
<path d="M19.4236 11.4389H16.6549C15.8625 11.4389 15.1026 11.1066 14.5423 10.5152C13.9819 9.92369 13.6669 9.12145 13.6666 8.28483V2.18818C13.662 1.61872 13.8695 1.07016 14.2445 0.660822C14.6194 0.251486 15.1317 0.0141739 15.6709 7.55216e-05C15.9374 -0.00229348 16.2017 0.0510933 16.4485 0.157177C16.6954 0.263261 16.9199 0.419927 17.1091 0.618129C17.2982 0.816331 17.4484 1.05216 17.5507 1.31197C17.6531 1.57177 17.7058 1.85039 17.7056 2.13178V8.86901C17.7013 9.26318 17.7767 9.65376 17.9267 10.0147C18.0767 10.3757 18.2979 10.6988 18.5755 10.9623C18.8155 11.1942 19.1073 11.3582 19.4236 11.4389Z" fill="#A3DC2F"/>
<path d="M21.2714 11.2724C22.568 11.2724 23.6191 10.1625 23.6191 8.79347C23.6191 7.42441 22.568 6.31458 21.2714 6.31458C19.9748 6.31458 18.9237 7.42441 18.9237 8.79347C18.9237 10.1625 19.9748 11.2724 21.2714 11.2724Z" fill="#A3DC2F"/>
<path d="M13.6665 19.57V16.6453C13.6668 15.8087 13.9818 15.0065 14.5422 14.415C15.1026 13.8236 15.8625 13.4913 16.6548 13.4913H22.4288C22.9681 13.4861 23.4877 13.7052 23.8752 14.1012C24.2628 14.4972 24.4871 15.0384 24.4999 15.6077C24.5021 15.889 24.4515 16.1681 24.3511 16.4287C24.2506 16.6894 24.1022 16.9264 23.9145 17.1262C23.7268 17.3259 23.5035 17.4844 23.2574 17.5925C23.0114 17.7006 22.7475 17.7562 22.481 17.756H16.1003C15.7271 17.7516 15.3572 17.8313 15.0153 17.9897C14.6735 18.1481 14.3675 18.3816 14.1178 18.6746C13.8987 18.9284 13.7435 19.2363 13.6665 19.57Z" fill="#A3DC2F"/>
<path d="M16.1719 23.9999C17.4685 23.9999 18.5196 22.8901 18.5196 21.521C18.5196 20.152 17.4685 19.0421 16.1719 19.0421C14.8753 19.0421 13.8242 20.152 13.8242 21.521C13.8242 22.8901 14.8753 23.9999 16.1719 23.9999Z" fill="#A3DC2F"/>
<path d="M5.57642 12.5612H8.34633C9.13866 12.5615 9.89843 12.8941 10.4586 13.4858C11.0187 14.0775 11.3334 14.8798 11.3334 15.7164V21.8131C11.3334 22.993 10.4477 23.991 9.33029 24C9.0637 24.0025 8.79926 23.9492 8.55228 23.8432C8.3053 23.7372 8.08067 23.5806 7.89136 23.3823C7.70205 23.1841 7.55183 22.9482 7.44937 22.6883C7.34691 22.4285 7.29424 22.1497 7.29441 21.8682V15.131C7.29891 14.737 7.22363 14.3465 7.0736 13.9857C6.92357 13.6249 6.70226 13.3021 6.4245 13.039C6.1844 12.8069 5.89269 12.6425 5.57642 12.5612Z" fill="#A3DC2F"/>
<path d="M3.72855 17.6855C5.02515 17.6855 6.07625 16.5756 6.07625 15.2066C6.07625 13.8375 5.02515 12.7277 3.72855 12.7277C2.43196 12.7277 1.38086 13.8375 1.38086 15.2066C1.38086 16.5756 2.43196 17.6855 3.72855 17.6855Z" fill="#A3DC2F"/>
<path d="M11.3322 4.4314V7.35481C11.3322 8.19142 11.0176 8.99381 10.4574 9.5855C9.89724 10.1772 9.13747 10.5098 8.34513 10.5101H2.57236C2.03304 10.515 1.51352 10.2958 1.12585 9.89993C0.738176 9.50401 0.513424 8.96308 0.500072 8.39378C0.497828 8.11239 0.548404 7.83331 0.648873 7.57268C0.749342 7.31204 0.897716 7.07499 1.08543 6.87524C1.27314 6.67549 1.49648 6.51699 1.74253 6.40888C1.98858 6.30077 2.25247 6.24522 2.51897 6.2454H8.90567C9.27897 6.24992 9.6489 6.17031 9.99076 6.01192C10.3326 5.85353 10.6386 5.62 10.8882 5.32687C11.1052 5.07258 11.2579 4.76458 11.3322 4.4314Z" fill="#A3DC2F"/>
<path d="M8.82804 4.95791C10.1246 4.95791 11.1757 3.84807 11.1757 2.47902C11.1757 1.10996 10.1246 0.00012207 8.82804 0.00012207C7.53144 0.00012207 6.48035 1.10996 6.48035 2.47902C6.48035 3.84807 7.53144 4.95791 8.82804 4.95791Z" fill="#A3DC2F"/>
</svg>
