<svg width="90" height="33" viewBox="0 0 90 33" fill="none" xmlns="http://www.w3.org/2000/svg">
<g clip-path="url(#clip0_22_436)">
<rect x="0.5" width="89" height="33" rx="16.5" fill="#F2F2F2"/>
<path d="M24.1667 11.8333C24.719 11.8333 25.1667 12.281 25.1667 12.8333C25.1667 13.3856 24.719 13.8333 24.1667 13.8333C23.6145 13.8333 23.1667 13.3856 23.1667 12.8333C23.1667 12.281 23.6145 11.8333 24.1667 11.8333Z" stroke="#1D1C20" stroke-linecap="round" stroke-linejoin="round"/>
<path d="M14.3494 15.9292C13.6806 16.6762 13.6663 17.803 14.28 18.5958C15.498 20.1688 16.8311 21.5019 18.4041 22.7198C19.1969 23.3336 20.3237 23.3192 21.0707 22.6505C23.0985 20.8348 24.9556 18.9372 26.7479 16.8519C26.9251 16.6458 27.0359 16.3931 27.0607 16.1224C27.1707 14.9253 27.3967 11.4764 26.4601 10.5398C25.5235 9.60319 22.0746 9.82916 20.8775 9.93915C20.6068 9.96403 20.3541 10.0749 20.1479 10.2521C18.0627 12.0443 16.1651 13.9014 14.3494 15.9292Z" stroke="#1D1C20"/>
<path d="M17.1667 17.8333L19.1667 19.8333" stroke="#1D1C20" stroke-linecap="round" stroke-linejoin="round"/>
<path d="M33.494 21V11.2H36.924C37.6893 11.2 38.324 11.3307 38.828 11.592C39.332 11.844 39.7053 12.194 39.948 12.642C40.2 13.0807 40.326 13.58 40.326 14.14C40.326 14.672 40.2047 15.162 39.962 15.61C39.7287 16.0487 39.36 16.3987 38.856 16.66C38.352 16.9213 37.708 17.052 36.924 17.052H34.978V21H33.494ZM34.978 15.834H36.854C37.554 15.834 38.0533 15.6847 38.352 15.386C38.66 15.078 38.814 14.6627 38.814 14.14C38.814 13.5987 38.66 13.1787 38.352 12.88C38.0533 12.572 37.554 12.418 36.854 12.418H34.978V15.834ZM41.7368 21V14.056H43.0668L43.1928 15.372C43.4355 14.9147 43.7715 14.5553 44.2008 14.294C44.6395 14.0233 45.1668 13.888 45.7828 13.888V15.442H45.3768C44.9662 15.442 44.5975 15.512 44.2708 15.652C43.9535 15.7827 43.6968 16.0113 43.5008 16.338C43.3142 16.6553 43.2208 17.0987 43.2208 17.668V21H41.7368ZM47.8952 12.74C47.6152 12.74 47.3819 12.656 47.1952 12.488C47.0179 12.3107 46.9292 12.0913 46.9292 11.83C46.9292 11.5687 47.0179 11.354 47.1952 11.186C47.3819 11.0087 47.6152 10.92 47.8952 10.92C48.1752 10.92 48.4039 11.0087 48.5812 11.186C48.7679 11.354 48.8612 11.5687 48.8612 11.83C48.8612 12.0913 48.7679 12.3107 48.5812 12.488C48.4039 12.656 48.1752 12.74 47.8952 12.74ZM47.1532 21V14.056H48.6372V21H47.1532ZM53.8862 21.168C53.2049 21.168 52.5935 21.014 52.0522 20.706C51.5202 20.398 51.1002 19.9733 50.7922 19.432C50.4935 18.8813 50.3442 18.2467 50.3442 17.528C50.3442 16.8093 50.4935 16.1793 50.7922 15.638C51.1002 15.0873 51.5202 14.658 52.0522 14.35C52.5935 14.042 53.2049 13.888 53.8862 13.888C54.7449 13.888 55.4635 14.112 56.0422 14.56C56.6302 15.008 57.0082 15.6147 57.1762 16.38H55.6222C55.5289 15.9973 55.3235 15.6987 55.0062 15.484C54.6889 15.2693 54.3155 15.162 53.8862 15.162C53.5222 15.162 53.1862 15.2553 52.8782 15.442C52.5702 15.6193 52.3229 15.8853 52.1362 16.24C51.9495 16.5853 51.8562 17.0147 51.8562 17.528C51.8562 18.0413 51.9495 18.4753 52.1362 18.83C52.3229 19.1753 52.5702 19.4413 52.8782 19.628C53.1862 19.8147 53.5222 19.908 53.8862 19.908C54.3155 19.908 54.6889 19.8007 55.0062 19.586C55.3235 19.3713 55.5289 19.068 55.6222 18.676H57.1762C57.0175 19.4227 56.6442 20.0247 56.0562 20.482C55.4682 20.9393 54.7449 21.168 53.8862 21.168ZM59.6257 12.74C59.3457 12.74 59.1123 12.656 58.9257 12.488C58.7483 12.3107 58.6597 12.0913 58.6597 11.83C58.6597 11.5687 58.7483 11.354 58.9257 11.186C59.1123 11.0087 59.3457 10.92 59.6257 10.92C59.9057 10.92 60.1343 11.0087 60.3117 11.186C60.4983 11.354 60.5917 11.5687 60.5917 11.83C60.5917 12.0913 60.4983 12.3107 60.3117 12.488C60.1343 12.656 59.9057 12.74 59.6257 12.74ZM58.8837 21V14.056H60.3677V21H58.8837ZM62.3267 21V14.056H63.6427L63.7547 15.274C63.9693 14.8447 64.282 14.5087 64.6927 14.266C65.1127 14.014 65.5933 13.888 66.1347 13.888C66.9747 13.888 67.6327 14.1493 68.1087 14.672C68.594 15.1947 68.8367 15.974 68.8367 17.01V21H67.3667V17.164C67.3667 15.82 66.816 15.148 65.7147 15.148C65.164 15.148 64.7067 15.344 64.3427 15.736C63.988 16.128 63.8107 16.688 63.8107 17.416V21H62.3267ZM73.4265 18.872C73.0625 18.872 72.7265 18.83 72.4185 18.746L71.8165 19.334C71.9192 19.3993 72.0452 19.4553 72.1945 19.502C72.3438 19.5487 72.5538 19.5907 72.8245 19.628C73.0952 19.6653 73.4638 19.7027 73.9305 19.74C74.8545 19.824 75.5218 20.048 75.9325 20.412C76.3432 20.7667 76.5485 21.2427 76.5485 21.84C76.5485 22.2507 76.4365 22.638 76.2125 23.002C75.9978 23.3753 75.6572 23.674 75.1905 23.898C74.7332 24.1313 74.1452 24.248 73.4265 24.248C72.4558 24.248 71.6672 24.0613 71.0605 23.688C70.4632 23.324 70.1645 22.7687 70.1645 22.022C70.1645 21.7327 70.2392 21.4433 70.3885 21.154C70.5472 20.874 70.7945 20.608 71.1305 20.356C70.9345 20.272 70.7618 20.1833 70.6125 20.09C70.4725 19.9873 70.3465 19.8847 70.2345 19.782V19.446L71.4385 18.214C70.8972 17.7473 70.6265 17.136 70.6265 16.38C70.6265 15.9227 70.7338 15.5073 70.9485 15.134C71.1725 14.7513 71.4945 14.448 71.9145 14.224C72.3345 14 72.8385 13.888 73.4265 13.888C73.8185 13.888 74.1825 13.944 74.5185 14.056H77.1085V15.036L75.8765 15.106C76.1005 15.4887 76.2125 15.9133 76.2125 16.38C76.2125 16.8467 76.1005 17.2667 75.8765 17.64C75.6618 18.0133 75.3445 18.312 74.9245 18.536C74.5138 18.76 74.0145 18.872 73.4265 18.872ZM73.4265 17.71C73.8558 17.71 74.2012 17.598 74.4625 17.374C74.7332 17.1407 74.8685 16.814 74.8685 16.394C74.8685 15.9647 74.7332 15.638 74.4625 15.414C74.2012 15.19 73.8558 15.078 73.4265 15.078C72.9878 15.078 72.6332 15.19 72.3625 15.414C72.1012 15.638 71.9705 15.9647 71.9705 16.394C71.9705 16.814 72.1012 17.1407 72.3625 17.374C72.6332 17.598 72.9878 17.71 73.4265 17.71ZM71.5645 21.882C71.5645 22.2833 71.7418 22.582 72.0965 22.778C72.4512 22.9833 72.8945 23.086 73.4265 23.086C73.9398 23.086 74.3552 22.974 74.6725 22.75C74.9898 22.5353 75.1485 22.246 75.1485 21.882C75.1485 21.6113 75.0412 21.378 74.8265 21.182C74.6118 20.9953 74.2058 20.8787 73.6085 20.832C73.1605 20.804 72.7638 20.762 72.4185 20.706C72.0918 20.8833 71.8678 21.0747 71.7465 21.28C71.6252 21.4853 71.5645 21.686 71.5645 21.882Z" fill="#1D1C20"/>
<rect x="1" y="0.5" width="88" height="32.5684" rx="16.2842" stroke="#364C09"/>
</g>
<defs>
<clipPath id="clip0_22_436">
<rect x="0.5" width="89" height="33" rx="16.5" fill="white"/>
</clipPath>
</defs>
</svg>
